<mxfile host="65bd71144e">
    <diagram id="PXUfSzx4AwvUJZ8vwBH-" name="Page-1">
        <mxGraphModel dx="2796" dy="1231" grid="1" gridSize="10" guides="1" tooltips="1" connect="1" arrows="1" fold="1" page="1" pageScale="1" pageWidth="850" pageHeight="1100" math="0" shadow="0">
            <root>
                <mxCell id="0"/>
                <mxCell id="1" parent="0"/>
                <mxCell id="6" value="" style="rounded=0;whiteSpace=wrap;html=1;strokeColor=#4D9900;fontSize=36;fillColor=#660033;" vertex="1" parent="1">
                    <mxGeometry x="-300" y="552.5" width="170" height="60" as="geometry"/>
                </mxCell>
                <mxCell id="5" value="" style="rounded=0;whiteSpace=wrap;html=1;strokeColor=#4D9900;fontSize=36;fillColor=#660066;" vertex="1" parent="1">
                    <mxGeometry x="-90" y="550" width="680" height="60" as="geometry"/>
                </mxCell>
                <mxCell id="4" value="" style="rounded=0;whiteSpace=wrap;html=1;strokeColor=#4D9900;fontSize=36;fillColor=#003366;" vertex="1" parent="1">
                    <mxGeometry x="-630" y="555" width="155" height="55" as="geometry"/>
                </mxCell>
                <mxCell id="3" value="" style="rounded=0;whiteSpace=wrap;html=1;fontSize=36;strokeColor=#4D9900;fillColor=#666600;" vertex="1" parent="1">
                    <mxGeometry x="-700" y="450" width="370" height="70" as="geometry"/>
                </mxCell>
                <mxCell id="2" value="&lt;pre&gt;&lt;font style=&quot;font-size: 36px;&quot;&gt;const Counter( ) {&lt;/font&gt;&lt;/pre&gt;&lt;pre&gt;&lt;font style=&quot;font-size: 36px;&quot;&gt;&lt;br&gt;&lt;/font&gt;&lt;font style=&quot;font-size: 36px;&quot;&gt;&amp;nbsp; &amp;nbsp; return &amp;lt;button onClick={( ) =&amp;gt; { console.log(&quot;clicked&quot;) }&amp;gt;Click Me!&amp;lt;/button&amp;gt;&lt;/font&gt;&lt;/pre&gt;&lt;pre&gt;&lt;font style=&quot;font-size: 36px;&quot;&gt;&lt;br&gt;&lt;/font&gt;&lt;font style=&quot;font-size: 36px;&quot;&gt;}&lt;/font&gt;&lt;/pre&gt;" style="text;html=1;align=left;verticalAlign=middle;resizable=0;points=[];autosize=1;strokeColor=none;fillColor=none;" vertex="1" parent="1">
                    <mxGeometry x="-700" y="440" width="1750" height="280" as="geometry"/>
                </mxCell>
            </root>
        </mxGraphModel>
    </diagram>
</mxfile>
